name baseline.mot
datacolumns 19
datarows 33
range 8.88329700000000 8.93663700000000
endheader
time	ground_force1_vx	ground_force1_vy	ground_force1_vz	ground_force1_px	ground_force1_py	ground_force1_pz	ground_force2_vx	ground_force2_vy	ground_force2_vz	ground_force2_px	ground_force2_py	ground_force2_pz	ground_torque1_x	ground_torque1_y	ground_torque1_z	ground_torque2_x	ground_torque2_y	ground_torque2_z	
8.88329700000000	-0.07122400000000	721.36701000000005	54.98281700000000	0.04359300000000	0.00000000000000	0.16521000000000	0.00000000000000	0.00000000000000	0.00000000000000	0.00000000000000	0.00000000000000	0.00000000000000	0.00000000000000	3.61672800000000	0.00000000000000	0.00000000000000	0.00000000000000	0.00000000000000	
8.88496800000000	-0.51578200000000	722.44389899999999	55.01984000000000	0.04274000000000	0.00000000000000	0.16520500000000	0.00000000000000	0.00000000000000	0.00000000000000	0.00000000000000	0.00000000000000	0.00000000000000	0.00000000000000	3.69424100000000	0.00000000000000	0.00000000000000	0.00000000000000	0.00000000000000	
8.88663200000000	-0.96028700000000	723.52586899999994	55.05865100000000	0.04188300000000	0.00000000000000	0.16519900000000	0.00000000000000	0.00000000000000	0.00000000000000	0.00000000000000	0.00000000000000	0.00000000000000	0.00000000000000	3.77129100000000	0.00000000000000	0.00000000000000	0.00000000000000	0.00000000000000	
8.88829800000000	-1.40471900000000	724.61140200000000	55.09906800000000	0.04102200000000	0.00000000000000	0.16519300000000	0.00000000000000	0.00000000000000	0.00000000000000	0.00000000000000	0.00000000000000	0.00000000000000	0.00000000000000	3.84781000000000	0.00000000000000	0.00000000000000	0.00000000000000	0.00000000000000	
8.88996400000000	-1.84906000000000	725.69904099999997	55.14091900000000	0.04015700000000	0.00000000000000	0.16518500000000	0.00000000000000	0.00000000000000	0.00000000000000	0.00000000000000	0.00000000000000	0.00000000000000	0.00000000000000	3.92373800000000	0.00000000000000	0.00000000000000	0.00000000000000	0.00000000000000	
8.89162800000000	-2.29329500000000	726.78739199999995	55.18403800000000	0.03928600000000	0.00000000000000	0.16517600000000	0.00000000000000	0.00000000000000	0.00000000000000	0.00000000000000	0.00000000000000	0.00000000000000	0.00000000000000	3.99901900000000	0.00000000000000	0.00000000000000	0.00000000000000	0.00000000000000	
8.89330000000000	-2.73741300000000	727.87512100000004	55.22826800000000	0.03841000000000	0.00000000000000	0.16516700000000	0.00000000000000	0.00000000000000	0.00000000000000	0.00000000000000	0.00000000000000	0.00000000000000	0.00000000000000	4.07360400000000	0.00000000000000	0.00000000000000	0.00000000000000	0.00000000000000	
8.89497700000000	-3.18140900000000	728.96095300000002	55.27346100000000	0.03752700000000	0.00000000000000	0.16515700000000	0.00000000000000	0.00000000000000	0.00000000000000	0.00000000000000	0.00000000000000	0.00000000000000	0.00000000000000	4.14744800000000	0.00000000000000	0.00000000000000	0.00000000000000	0.00000000000000	
8.89663200000000	-3.62527800000000	730.04367900000000	55.31947400000000	0.03663900000000	0.00000000000000	0.16514600000000	0.00000000000000	0.00000000000000	0.00000000000000	0.00000000000000	0.00000000000000	0.00000000000000	0.00000000000000	4.22051400000000	0.00000000000000	0.00000000000000	0.00000000000000	0.00000000000000	
8.89829500000000	-4.06902200000000	731.12214600000004	55.36617600000000	0.03574500000000	0.00000000000000	0.16513400000000	0.00000000000000	0.00000000000000	0.00000000000000	0.00000000000000	0.00000000000000	0.00000000000000	0.00000000000000	4.29276900000000	0.00000000000000	0.00000000000000	0.00000000000000	0.00000000000000	
8.89997000000000	-4.51264500000000	732.19526299999995	55.41344000000000	0.03484400000000	0.00000000000000	0.16512100000000	0.00000000000000	0.00000000000000	0.00000000000000	0.00000000000000	0.00000000000000	0.00000000000000	0.00000000000000	4.36418900000000	0.00000000000000	0.00000000000000	0.00000000000000	0.00000000000000	
8.90162800000000	-4.95615500000000	733.26199699999995	55.46114900000000	0.03393600000000	0.00000000000000	0.16510700000000	0.00000000000000	0.00000000000000	0.00000000000000	0.00000000000000	0.00000000000000	0.00000000000000	0.00000000000000	4.43475300000000	0.00000000000000	0.00000000000000	0.00000000000000	0.00000000000000	
8.90330200000000	-5.39956600000000	734.32137399999999	55.50919500000000	0.03302100000000	0.00000000000000	0.16509300000000	0.00000000000000	0.00000000000000	0.00000000000000	0.00000000000000	0.00000000000000	0.00000000000000	0.00000000000000	4.50444700000000	0.00000000000000	0.00000000000000	0.00000000000000	0.00000000000000	
8.90498100000000	-5.84289100000000	735.37247800000000	55.55747400000000	0.03209900000000	0.00000000000000	0.16507800000000	0.00000000000000	0.00000000000000	0.00000000000000	0.00000000000000	0.00000000000000	0.00000000000000	0.00000000000000	4.57326500000000	0.00000000000000	0.00000000000000	0.00000000000000	0.00000000000000	
8.90663700000000	-6.28615200000000	736.41444799999999	55.60589300000000	0.03117000000000	0.00000000000000	0.16506200000000	0.00000000000000	0.00000000000000	0.00000000000000	0.00000000000000	0.00000000000000	0.00000000000000	0.00000000000000	4.64120500000000	0.00000000000000	0.00000000000000	0.00000000000000	0.00000000000000	
8.90829800000000	-6.72936900000000	737.44647799999996	55.65436600000000	0.03023400000000	0.00000000000000	0.16504600000000	0.00000000000000	0.00000000000000	0.00000000000000	0.00000000000000	0.00000000000000	0.00000000000000	0.00000000000000	4.70827100000000	0.00000000000000	0.00000000000000	0.00000000000000	0.00000000000000	
8.90996700000000	-7.17257000000000	738.46781699999997	55.70281400000000	0.02929000000000	0.00000000000000	0.16502900000000	0.00000000000000	0.00000000000000	0.00000000000000	0.00000000000000	0.00000000000000	0.00000000000000	0.00000000000000	4.77447400000000	0.00000000000000	0.00000000000000	0.00000000000000	0.00000000000000	
8.91163400000000	-7.61578300000000	739.47776399999998	55.75116500000000	0.02834000000000	0.00000000000000	0.16501100000000	0.00000000000000	0.00000000000000	0.00000000000000	0.00000000000000	0.00000000000000	0.00000000000000	0.00000000000000	4.83982900000000	0.00000000000000	0.00000000000000	0.00000000000000	0.00000000000000	
8.91329900000000	-8.05904100000000	740.47567300000003	55.79935500000000	0.02738300000000	0.00000000000000	0.16499300000000	0.00000000000000	0.00000000000000	0.00000000000000	0.00000000000000	0.00000000000000	0.00000000000000	0.00000000000000	4.90435800000000	0.00000000000000	0.00000000000000	0.00000000000000	0.00000000000000	
8.91496400000000	-8.50237700000000	741.46094500000004	55.84732800000000	0.02641900000000	0.00000000000000	0.16497400000000	0.00000000000000	0.00000000000000	0.00000000000000	0.00000000000000	0.00000000000000	0.00000000000000	0.00000000000000	4.96808900000000	0.00000000000000	0.00000000000000	0.00000000000000	0.00000000000000	
8.91663300000000	-8.94583000000000	742.43303000000003	55.89503300000000	0.02544800000000	0.00000000000000	0.16495500000000	0.00000000000000	0.00000000000000	0.00000000000000	0.00000000000000	0.00000000000000	0.00000000000000	0.00000000000000	5.03105200000000	0.00000000000000	0.00000000000000	0.00000000000000	0.00000000000000	
8.91829600000000	-9.38944000000000	743.39142800000002	55.94242700000000	0.02447100000000	0.00000000000000	0.16493500000000	0.00000000000000	0.00000000000000	0.00000000000000	0.00000000000000	0.00000000000000	0.00000000000000	0.00000000000000	5.09328500000000	0.00000000000000	0.00000000000000	0.00000000000000	0.00000000000000	
8.91998200000000	-9.83324700000000	744.33568000000002	55.98947500000000	0.02348900000000	0.00000000000000	0.16491400000000	0.00000000000000	0.00000000000000	0.00000000000000	0.00000000000000	0.00000000000000	0.00000000000000	0.00000000000000	5.15482900000000	0.00000000000000	0.00000000000000	0.00000000000000	0.00000000000000	
8.92162900000000	-10.27729700000000	745.26537699999994	56.03614600000000	0.02250000000000	0.00000000000000	0.16489300000000	0.00000000000000	0.00000000000000	0.00000000000000	0.00000000000000	0.00000000000000	0.00000000000000	0.00000000000000	5.21572900000000	0.00000000000000	0.00000000000000	0.00000000000000	0.00000000000000	
8.92330200000000	-10.72163600000000	746.18014900000003	56.08241900000000	0.02150700000000	0.00000000000000	0.16487200000000	0.00000000000000	0.00000000000000	0.00000000000000	0.00000000000000	0.00000000000000	0.00000000000000	0.00000000000000	5.27603600000000	0.00000000000000	0.00000000000000	0.00000000000000	0.00000000000000	
8.92497800000000	-11.16630900000000	747.07966999999996	56.12827700000000	0.02050900000000	0.00000000000000	0.16485000000000	0.00000000000000	0.00000000000000	0.00000000000000	0.00000000000000	0.00000000000000	0.00000000000000	0.00000000000000	5.33580300000000	0.00000000000000	0.00000000000000	0.00000000000000	0.00000000000000	
8.92663600000000	-11.61136700000000	747.96365400000002	56.17371000000000	0.01950700000000	0.00000000000000	0.16482800000000	0.00000000000000	0.00000000000000	0.00000000000000	0.00000000000000	0.00000000000000	0.00000000000000	0.00000000000000	5.39508500000000	0.00000000000000	0.00000000000000	0.00000000000000	0.00000000000000	
8.92830400000000	-12.05685900000000	748.83185400000002	56.21871400000000	0.01850100000000	0.00000000000000	0.16480500000000	0.00000000000000	0.00000000000000	0.00000000000000	0.00000000000000	0.00000000000000	0.00000000000000	0.00000000000000	5.45394200000000	0.00000000000000	0.00000000000000	0.00000000000000	0.00000000000000	
8.92998200000000	-12.50283400000000	749.68406300000004	56.26329000000000	0.01749200000000	0.00000000000000	0.16478200000000	0.00000000000000	0.00000000000000	0.00000000000000	0.00000000000000	0.00000000000000	0.00000000000000	0.00000000000000	5.51243700000000	0.00000000000000	0.00000000000000	0.00000000000000	0.00000000000000	
8.93163500000000	-12.94934500000000	750.52010800000005	56.30744600000000	0.01648000000000	0.00000000000000	0.16475800000000	0.00000000000000	0.00000000000000	0.00000000000000	0.00000000000000	0.00000000000000	0.00000000000000	0.00000000000000	5.57063300000000	0.00000000000000	0.00000000000000	0.00000000000000	0.00000000000000	
8.93329800000000	-13.39644300000000	751.33985399999995	56.35119600000000	0.01546600000000	0.00000000000000	0.16473400000000	0.00000000000000	0.00000000000000	0.00000000000000	0.00000000000000	0.00000000000000	0.00000000000000	0.00000000000000	5.62859400000000	0.00000000000000	0.00000000000000	0.00000000000000	0.00000000000000	
8.93496200000000	-13.84417900000000	752.14319899999998	56.39455800000000	0.01445100000000	0.00000000000000	0.16471000000000	0.00000000000000	0.00000000000000	0.00000000000000	0.00000000000000	0.00000000000000	0.00000000000000	0.00000000000000	5.68638900000000	0.00000000000000	0.00000000000000	0.00000000000000	0.00000000000000	
8.93663700000000	-14.29260500000000	752.93007499999999	56.43755700000000	0.01343500000000	0.00000000000000	0.16468600000000	0.00000000000000	0.00000000000000	0.00000000000000	0.00000000000000	0.00000000000000	0.00000000000000	0.00000000000000	5.74408300000000	0.00000000000000	0.00000000000000	0.00000000000000	0.00000000000000	
